<svg xmlns="http://www.w3.org/2000/svg" viewBox="0 0 90.61 27.3"><defs><style>.a{fill:#fff;}</style></defs><title>Fichier 1</title><path class="a" d="M10.57,17.61v5.52a1,1,0,0,0,.37.89l2.87,2.91V27H0v-.07l2-2.66a1.18,1.18,0,0,0,.29-.95V4.79a1.19,1.19,0,0,0-.29-1L0,1.18V1.11H13.7c5.16,0,10.76,1.65,10.76,7.8s-4.64,8.7-11.9,8.7Zm0-.78h1.22c3.09,0,4.12-3.57,4.12-7.66,0-3.87-1.07-7.29-3.57-7.29H11.2c-.55,0-.63,0-.63.66Z"/><path class="a" d="M34.26,13.15v-.22c0-2.36-.56-3.87-2-3.87-.59,0-.66,0-.85.37L28,15.36h-.08L25.23,9.83a25.29,25.29,0,0,1,8.1-1.5c2.66,0,4.87.47,6.3,1.8,1.26,1.14,2,2.91,2,5.6,0,.48,0,.88,0,1l-.3,5.57c-.07,1.4.26,2,.85,2A1,1,0,0,0,43,23.8h.07a2.43,2.43,0,0,1-.3,1.47,4.4,4.4,0,0,1-4.08,2c-2.32,0-4.35-1.29-4.57-3.39A5.31,5.31,0,0,1,29,27.3c-2.77,0-5.12-1.85-5.12-5.38,0-3.72,3.24-5.68,6.29-5.68a6.65,6.65,0,0,1,4,.93Zm-3.43,8c0,2.1.77,3.1,1.84,3.1a1.86,1.86,0,0,0,1.4-.78l.11-5.89a4.15,4.15,0,0,0-1-.11C31.71,17.46,30.83,19,30.83,21.14Z"/><path class="a" d="M43.57,18.05C43.57,10.76,49,8.33,54,8.33a21.47,21.47,0,0,1,6.74,1.1l-2.69,6.92H58l-3.2-6.88c-.19-.37-.22-.41-.59-.41h0c-1.62,0-2.58,2.14-2.58,6.82,0,5.56,2.51,7.18,4.79,7.18a4.87,4.87,0,0,0,4.16-2.36h.08c-.63,4.16-3.46,6.6-7.85,6.6C48,27.3,43.57,24.2,43.57,18.05Z"/><path class="a" d="M70.72,18.53a.48.48,0,0,0-.44-.33.27.27,0,0,0-.15,0v6a1.14,1.14,0,0,0,.29.92l1.44,1.81V27H61v-.07l1.39-1.81a1.12,1.12,0,0,0,.3-.92V3.94a1.12,1.12,0,0,0-.3-.92L61,1.18V1.11L70.13,0V17.79l5.27-3.94a.53.53,0,0,0,.14-.81L73.15,8.69V8.62H83.1v.07l-6.45,4.94c-.29.22-.37.33-.22.66l4.94,10a5.72,5.72,0,0,0,.84,1.22l1.18,1.4V27h-9Z"/><path class="a" d="M87.29,21a3.16,3.16,0,0,1,3.32,3.2,3.32,3.32,0,0,1-6.63,0A3.18,3.18,0,0,1,87.29,21Z"/></svg>